<?xml version="1.0" encoding="UTF-8"?>
<svg id="_全体" data-name="全体" xmlns="http://www.w3.org/2000/svg" viewBox="0 0 1080 1350">
  <defs>
    <style>
      .cls-1 {
        fill: #d6d6d6;
      }

      .cls-2 {
        fill: #f4f4f4;
      }

      .cls-3 {
        fill: #ffb000;
      }

      .cls-4 {
        fill: #4d4d4d;
      }

      .cls-5 {
        fill: #e5e5e5;
      }

      .cls-6 {
        fill: #af0404;
      }

      .cls-7 {
        fill: #5e5e5e;
      }

      .cls-8 {
        fill: red;
      }

      .cls-9 {
        fill: #b2b2b2;
      }
    </style>
  </defs>
  <g>
    <g>
      <polygon class="cls-2" points="449.68 654.01 442.27 647.16 452.56 636.03 439.1 621.48 452.56 606.93 439.1 592.37 455.73 574.4 463.14 581.25 452.85 592.37 466.31 606.93 452.85 621.48 466.31 636.03 449.68 654.01"/>
      <polygon class="cls-2" points="506.98 654.01 499.57 647.16 509.86 636.03 496.4 621.48 509.86 606.93 496.4 592.37 513.03 574.4 520.44 581.25 510.15 592.37 523.61 606.93 510.15 621.48 523.61 636.03 506.98 654.01"/>
      <polygon class="cls-2" points="564.29 654.01 556.87 647.16 567.16 636.03 553.71 621.48 567.16 606.93 553.71 592.37 570.33 574.4 577.74 581.25 567.45 592.37 580.91 606.93 567.45 621.48 580.91 636.03 564.29 654.01"/>
      <polygon class="cls-2" points="621.59 654.01 614.18 647.16 624.47 636.03 611.01 621.48 624.47 606.93 611.01 592.37 627.63 574.4 635.04 581.25 624.75 592.37 638.21 606.93 624.75 621.48 638.21 636.03 621.59 654.01"/>
    </g>
    <g>
      <path class="cls-9" d="M359.63,540.25c-.07,0-.15-.02-.22-.03-8.52-1.13-18.8-13.42-23.3-27.07-1.95-5.83-3.88-11.7-5.79-17.59,2.56.78,5.39,2.66,8.23,5.28,2.86,2.64,5.73,6.03,8.29,9.85,2.62,3.9,4.92,8.25,6.56,12.75,2.06,5.64,4.13,11.25,6.22,16.82Z"/>
      <path class="cls-5" d="M359.41,540.22c5.22,7.19,11.92,12.12,17.74,12.41.08,0,.16.01.23.01-2.18-5.39-4.35-10.81-6.5-16.27-1.72-4.35-4.13-8.5-6.88-12.16-2.69-3.58-5.69-6.71-8.7-9.08-2.91-2.29-5.82-3.88-8.46-4.45"/>
      <path class="cls-9" d="M395.83,563.51c-.08,0-.16,0-.24,0-6.03.2-12.99-4.15-18.43-10.88.08,0,.16.01.23.01-2.18-5.39-4.35-10.81-6.5-16.27-1.72-4.35-4.13-8.5-6.88-12.16,2.77.33,5.82,1.66,8.86,3.69,3.14,2.11,6.28,4.97,9.07,8.32,2.86,3.43,5.37,7.36,7.15,11.57,2.23,5.27,4.48,10.51,6.74,15.72Z"/>
      <path class="cls-5" d="M381.94,536.22c2.89.09,6.05,1.16,9.21,2.93,3.26,1.84,6.51,4.44,9.4,7.55,2.96,3.19,5.55,6.92,7.39,10.98,2.3,5.09,4.62,10.14,6.95,15.17-.08.01-.17.02-.25.03-6.21.69-13.41-3.09-19.05-9.36"/>
      <path class="cls-9" d="M414.63,572.87c5.81,5.81,13.19,9.01,19.55,7.83.09-.01.17-.03.26-.05-2.38-4.84-4.76-9.71-7.12-14.62-1.89-3.91-4.54-7.43-7.59-10.38-2.97-2.88-6.32-5.22-9.68-6.79-3.25-1.51-6.52-2.32-9.5-2.17"/>
      <path class="cls-5" d="M419.59,555.53c3.04-.36,6.35.19,9.62,1.43,3.45,1.31,6.88,3.38,9.92,6.04,3.11,2.71,5.82,6.03,7.74,9.8,2.41,4.72,4.83,9.41,7.26,14.07-.09.02-.17.05-.26.07-6.43,1.65-13.92-.93-19.84-6.21"/>
      <path class="cls-9" d="M453.88,586.93c6.06,4.9,13.74,6.95,20.31,4.8.09-.02.18-.05.26-.09-2.46-4.47-4.92-8.98-7.37-13.52-1.96-3.62-4.71-6.73-7.88-9.21-3.1-2.42-6.58-4.23-10.1-5.27-3.4-1-6.83-1.28-9.97-.65"/>
      <path class="cls-5" d="M495.01,594.9c-.09.04-.18.08-.27.11-6.64,2.64-14.4,1.16-20.55-3.27.09-.02.18-.05.26-.09-2.46-4.47-4.92-8.98-7.37-13.52-1.96-3.62-4.71-6.73-7.88-9.21,3.2-.87,6.69-.85,10.13-.11,3.57.77,7.11,2.32,10.24,4.5,3.21,2.24,6,5.14,7.98,8.61,2.48,4.36,4.96,8.68,7.45,12.97Z"/>
      <path class="cls-9" d="M479.58,573.32c3.24-1.11,6.77-1.35,10.26-.87,3.61.5,7.18,1.79,10.34,3.74,3.24,2,6.05,4.7,8.04,8.02,2.5,4.17,4.99,8.31,7.49,12.42-.09.04-.18.09-.27.13-6.67,3.13-14.49,2.23-20.7-1.75"/>
      <path class="cls-5" d="M515.45,596.75c6.24,3.52,14.08,3.85,20.76.22.09-.04.18-.09.27-.14-2.5-3.92-5-7.88-7.5-11.87-1.99-3.18-4.81-5.67-8.06-7.43-3.17-1.72-6.76-2.74-10.39-2.98-3.51-.23-7.06.28-10.33,1.63"/>
      <path class="cls-9" d="M521.23,577.72s-.02-.02-.02-.04c3.35-1.69,7.02-2.5,10.63-2.54,3.64-.04,7.23.71,10.41,2.19,3.24,1.51,6.05,3.79,8.04,6.82,2.5,3.8,4.99,7.57,7.48,11.3-.09.06-.18.11-.27.17-6.76,4.2-14.74,4.4-21.03,1.19"/>
      <path class="cls-5" d="M557.49,595.61c6.22,2.59,14.01,1.75,20.6-2.87.09-.06.18-.12.27-.18-2.47-3.55-4.94-7.13-7.42-10.75-1.98-2.88-4.77-4.95-8-6.23-3.16-1.25-6.73-1.73-10.36-1.43-3.5.3-7.06,1.33-10.34,3.17"/>
      <path class="cls-9" d="M598.73,588.14c-.09.07-.17.14-.26.2-6.5,5.11-14.21,6.53-20.38,4.4.09-.06.18-.12.27-.18-2.47-3.55-4.94-7.13-7.42-10.75-1.98-2.88-4.77-4.95-8-6.23,3.26-2.08,6.8-3.38,10.28-3.93,3.6-.57,7.14-.35,10.27.66,3.2,1.03,5.97,2.9,7.92,5.63,2.45,3.43,4.89,6.83,7.33,10.2Z"/>
      <path class="cls-5" d="M583.48,572.31c3.23-2.32,6.73-3.88,10.17-4.7,3.56-.84,7.06-.88,10.14-.1,3.16.8,5.88,2.45,7.8,5.04,2.41,3.25,4.81,6.46,7.21,9.64-.09.08-.17.15-.26.22-6.39,5.6-13.98,7.59-20.08,5.93"/>
      <path class="cls-9" d="M618.54,582.42c5.99,1.21,13.42-1.36,19.67-7.45.08-.08.17-.16.25-.24-2.34-3-4.69-6.03-7.05-9.09-1.88-2.44-4.55-3.89-7.65-4.45-3.03-.55-6.46-.24-9.96.87-3.38,1.07-6.83,2.89-10.01,5.46"/>
      <path class="cls-5" d="M623.62,561.16c3.09-2.75,6.42-4.78,9.68-6.09,3.43-1.37,6.79-1.94,9.75-1.63,3.02.32,5.62,1.57,7.45,3.87,2.3,2.88,4.59,5.73,6.87,8.55-.08.09-.16.18-.25.26-6.02,6.53-13.22,9.67-19.05,8.97"/>
      <path class="cls-9" d="M657.13,566.13c5.7.3,12.74-3.42,18.61-10.48.08-.09.16-.19.24-.28-2.2-2.63-4.42-5.3-6.65-8-1.78-2.15-4.3-3.19-7.24-3.27-2.87-.08-6.13.75-9.47,2.39-3.22,1.58-6.52,3.93-9.57,6.97"/>
      <path class="cls-5" d="M693.89,543.34c-.08.1-.15.21-.23.3-5.64,7.55-12.42,11.84-17.93,12.01.08-.09.16-.19.24-.28-2.2-2.63-4.42-5.3-6.65-8-1.78-2.15-4.3-3.19-7.24-3.27,2.96-3.28,6.16-5.89,9.28-7.73,3.23-1.91,6.39-3,9.16-3.15,2.84-.16,5.26.68,6.98,2.68,2.15,2.52,4.28,5,6.39,7.45Z"/>
      <path class="cls-9" d="M680.52,533.21c2.86-3.53,5.94-6.39,8.95-8.5,3.11-2.17,6.14-3.53,8.79-3.92,2.72-.4,5.04.23,6.68,2.09,2.05,2.33,4.09,4.63,6.11,6.9-.07.11-.14.22-.22.32-5.38,8.04-11.88,12.92-17.17,13.54"/>
      <path class="cls-5" d="M710.84,530.1c5.05-1.08,11.22-6.52,16.31-15.06.07-.11.14-.23.21-.34-1.91-2.08-3.84-4.2-5.79-6.34-1.55-1.71-3.76-2.13-6.35-1.49-2.53.62-5.42,2.24-8.39,4.68-2.87,2.36-5.82,5.49-8.56,9.25"/>
    </g>
    <g>
      <g>
        <path class="cls-8" d="M213.45,379.87l15.83,44.91c97.53,8.91,203.94,14.6,318.1,14.85,110.58.24,213.88-4.67,308.83-12.69,4.78-15.69,9.56-31.39,14.33-47.08-94.32,13.37-203.46,22.97-324.69,23.18-124.4.21-236.18-9.52-332.42-23.16Z"/>
        <path class="cls-6" d="M229.28,432.24c28.73,2.63,58.23,4.97,88.47,6.98,2.11.14,4.22.28,6.33.42,5.04.33,10.11.64,15.2.95,2.04.12,4.08.24,6.12.36,64.21,3.77,131.62,5.99,201.98,6.14,77.73.17,151.83-2.22,222-6.43,1.57-.09,3.13-.19,4.7-.29,15.19-.93,30.22-1.94,45.03-3.04,1.57-.12,3.12-.24,4.68-.35,10.91-.82,21.73-1.68,32.43-2.58,4.78-15.69,9.56-31.39,14.33-47.08-.86.12-1.74.24-2.61.36-3.91,12.84-7.82,25.68-11.73,38.52-94.96,8.02-198.25,12.92-308.83,12.69-114.16-.24-220.57-5.93-318.1-14.85l-12.79-36.28c-1.01-.14-2.03-.28-3.04-.42l15.83,44.91Z"/>
      </g>
      <g>
        <path class="cls-8" d="M247.59,425.16v27.88c92.21,4.83,189.07,7.59,290.2,7.57,100.41-.02,196.61-2.77,288.22-7.57v-28.67c-93.52,3.3-189.97,5.16-289.21,5.3-99.23.14-195.69-1.46-289.21-4.51Z"/>
        <path class="cls-6" d="M247.59,452.94v8.77c92.21,4.83,189.07,7.59,290.2,7.57,100.41-.02,196.61-2.77,288.22-7.57v-8.77c-91.61,4.8-187.81,7.55-288.22,7.57-101.13.02-197.99-2.74-290.2-7.57Z"/>
      </g>
      <rect class="cls-8" x="251.13" y="502.92" width="572.91" height="36.04"/>
      <rect class="cls-8" x="516.38" y="447.18" width="42.4" height="55.65"/>
      <path class="cls-9" d="M303.34,837.22c-1.95,15.58-3.9,31.16-5.86,46.73,10.77,3.51,25.68,7.13,43.67,7.88,21.47.89,39.17-2.64,51.17-6.04-.6-15.67-1.21-31.34-1.81-47.01-.32-.86-1.04-2.41-2.59-3.75-2.7-2.31-5.89-2.21-6.66-2.17-8.23,2.98-21.22,6.52-37.37,6.25-12.18-.21-22.28-2.53-29.52-4.8-1.08-.14-2.45-.21-4,0-3.35.46-5.76,1.96-7.04,2.9Z"/>
      <path class="cls-9" d="M771.71,838.84c1.95,15.58,3.9,31.16,5.86,46.73-10.77,3.51-25.68,7.13-43.67,7.88-21.47.89-39.17-2.64-51.17-6.04.6-15.67,1.21-31.34,1.81-47.01.32-.86,1.04-2.41,2.59-3.75,2.7-2.31,5.89-2.21,6.66-2.17,8.23,2.98,21.22,6.52,37.37,6.25,12.18-.21,22.28-2.53,29.52-4.8,1.08-.14,2.45-.21,4,0,3.35.46,5.76,1.96,7.04,2.9Z"/>
      <path class="cls-8" d="M743.53,460.46c-4.98-2.65-15.74-7.51-30.16-7.34-13.6.16-23.75,4.72-28.7,7.36,3.45,128.46,6.9,256.93,10.34,385.39,9.2,1.98,20.62,3.67,33.77,3.92,12.81.25,24.01-.92,33.12-2.47-6.13-128.95-12.25-257.91-18.38-386.86Z"/>
      <path class="cls-8" d="M332.53,453.85c4.98-2.65,15.74-7.51,30.16-7.34,13.6.16,23.75,4.72,28.7,7.36-3.45,128.46-6.9,256.93-10.34,385.39-9.2,1.98-20.62,3.67-33.77,3.92-12.81.25-24.01-.92-33.12-2.47,6.13-128.95,12.25-257.91,18.38-386.86Z"/>
    </g>
  </g>
  <g>
    <polygon class="cls-3" points="196.46 782.75 254.81 782.75 257 725.61 194.27 725.61 196.46 782.75"/>
    <path class="cls-4" d="M191.34,788.71l-8.02-72.47h86.59l-8.02,72.47h-70.56ZM254.12,775.66v-46.37h-55v46.37h55Z"/>
    <polygon class="cls-8" points="229.53 669.86 194.93 701.26 264.12 701.26 229.53 669.86"/>
    <path class="cls-7" d="M240.59,657.56c-19.07,29.36-44.15,55.57-73.55,77,0,0-13.66-19.13-13.66-19.13,31.12-14.84,59.85-35.15,84.05-60,0,0,3.16,2.13,3.16,2.13h0Z"/>
    <path class="cls-7" d="M220.44,655.72c24.65,24.61,53.72,44.54,85.01,58.92l-14.85,20.8c-29.18-21.84-53.94-48.42-72.59-78.08,0,0,2.44-1.64,2.44-1.64h0Z"/>
    <rect class="cls-7" x="203.18" y="697" width="52.7" height="6.75"/>
    <g>
      <rect class="cls-7" x="199.12" y="751.08" width="55" height="4.02"/>
      <rect class="cls-7" x="213.02" y="729.03" width="4.36" height="46.63"/>
      <rect class="cls-7" x="237.71" y="729.03" width="4.36" height="46.63"/>
    </g>
    <g>
      <rect class="cls-8" x="219.55" y="789.08" width="14.13" height="215.79"/>
      <rect class="cls-8" x="191.34" y="788.71" width="70.24" height="8.38"/>
    </g>
  </g>
  <g>
    <polygon class="cls-3" points="817.19 782.75 875.54 782.75 877.73 725.61 815 725.61 817.19 782.75"/>
    <path class="cls-4" d="M812.07,788.71l-8.02-72.47h86.59l-8.02,72.47h-70.56ZM874.85,775.66v-46.37h-55v46.37h55Z"/>
    <polygon class="cls-8" points="850.26 669.86 815.67 701.26 884.86 701.26 850.26 669.86"/>
    <path class="cls-7" d="M861.32,657.56c-19.07,29.36-44.15,55.57-73.55,77,0,0-13.66-19.13-13.66-19.13,31.12-14.84,59.85-35.15,84.05-60,0,0,3.16,2.13,3.16,2.13h0Z"/>
    <path class="cls-7" d="M841.17,655.72c24.65,24.61,53.72,44.54,85.01,58.92l-14.85,20.8c-29.18-21.84-53.94-48.42-72.59-78.08,0,0,2.44-1.64,2.44-1.64h0Z"/>
    <rect class="cls-7" x="823.91" y="697" width="52.7" height="6.75"/>
    <g>
      <rect class="cls-7" x="819.85" y="751.08" width="55" height="4.02"/>
      <rect class="cls-7" x="833.75" y="729.03" width="4.36" height="46.63"/>
      <rect class="cls-7" x="858.44" y="729.03" width="4.36" height="46.63"/>
    </g>
    <g>
      <rect class="cls-8" x="840.28" y="789.08" width="14.13" height="215.79"/>
      <rect class="cls-8" x="812.07" y="788.71" width="70.24" height="8.38"/>
    </g>
  </g>
  <rect class="cls-1" x="216.35" y="1002.35" width="640.11" height="43.67"/>
  <rect class="cls-7" x="155.01" y="1045.35" width="769.97" height="43.67"/>
  <rect class="cls-1" x="113.65" y="1089.02" width="852.7" height="43.67"/>
  <rect class="cls-7" x="69.76" y="1132.68" width="940.47" height="43.67"/>
  <rect class="cls-1" x="27.24" y="1169.39" width="1025.52" height="48.65"/>
</svg>