<?xml version="1.0" encoding="UTF-8"?>
<svg id="_レイヤー_3" data-name="レイヤー 3" xmlns="http://www.w3.org/2000/svg" viewBox="0 0 1080 1350">
  <defs>
    <style>
      .cls-1 {
        fill: #f4f4f4;
      }

      .cls-2 {
        fill: #e5e5e5;
      }

      .cls-3 {
        fill: #af0404;
      }

      .cls-4 {
        fill: red;
      }

      .cls-5 {
        fill: #b2b2b2;
      }
    </style>
  </defs>
  <g>
    <polygon class="cls-1" points="434.76 655.43 426.32 647.62 438.05 634.94 422.7 618.35 438.05 601.76 422.7 585.17 441.66 564.67 450.1 572.48 438.38 585.17 453.72 601.76 438.38 618.35 453.72 634.94 434.76 655.43"/>
    <polygon class="cls-1" points="500.08 655.43 491.64 647.62 503.37 634.94 488.02 618.35 503.37 601.76 488.02 585.17 506.98 564.67 515.42 572.48 503.7 585.17 519.04 601.76 503.7 618.35 519.04 634.94 500.08 655.43"/>
    <polygon class="cls-1" points="565.4 655.43 556.96 647.62 568.69 634.94 553.34 618.35 568.69 601.76 553.34 585.17 572.3 564.67 580.74 572.48 569.02 585.17 584.36 601.76 569.02 618.35 584.36 634.94 565.4 655.43"/>
    <polygon class="cls-1" points="630.72 655.43 622.28 647.62 634.01 634.94 618.66 618.35 634.01 601.76 618.66 585.17 637.62 564.67 646.06 572.48 634.34 585.17 649.68 601.76 634.34 618.35 649.68 634.94 630.72 655.43"/>
  </g>
  <g>
    <path class="cls-5" d="M332.11,525.75c-.09,0-.17-.02-.26-.04-9.72-1.29-21.43-15.3-26.56-30.86-2.22-6.65-4.42-13.33-6.6-20.06,2.92.89,6.15,3.03,9.38,6.02,3.26,3.01,6.53,6.88,9.45,11.23,2.98,4.44,5.61,9.41,7.48,14.53,2.35,6.43,4.71,12.82,7.1,19.18Z"/>
    <path class="cls-2" d="M331.85,525.72c5.95,8.19,13.59,13.81,20.23,14.15.09,0,.18.01.27.02-2.49-6.14-4.96-12.33-7.41-18.55-1.96-4.96-4.71-9.68-7.84-13.86-3.06-4.09-6.49-7.65-9.92-10.35-3.31-2.61-6.63-4.42-9.65-5.07"/>
    <path class="cls-5" d="M373.37,552.26c-.09,0-.18.01-.28,0-6.88.22-14.81-4.74-21.01-12.4.09,0,.18.01.27.02-2.49-6.14-4.96-12.33-7.41-18.55-1.96-4.96-4.71-9.68-7.84-13.86,3.16.38,6.64,1.89,10.09,4.2,3.58,2.4,7.15,5.66,10.34,9.48,3.26,3.91,6.12,8.4,8.15,13.19,2.55,6.01,5.11,11.98,7.68,17.92Z"/>
    <path class="cls-2" d="M357.54,521.16c3.29.1,6.9,1.32,10.5,3.34,3.72,2.1,7.42,5.06,10.72,8.61,3.38,3.63,6.33,7.89,8.42,12.51,2.63,5.8,5.27,11.56,7.92,17.29-.1.01-.19.03-.29.03-7.08.78-15.29-3.52-21.71-10.67"/>
    <path class="cls-5" d="M394.81,562.94c6.62,6.62,15.04,10.27,22.29,8.93.1-.01.19-.03.29-.05-2.72-5.52-5.42-11.07-8.12-16.66-2.15-4.46-5.18-8.47-8.65-11.84-3.39-3.29-7.2-5.95-11.03-7.74-3.7-1.73-7.43-2.64-10.83-2.47"/>
    <path class="cls-2" d="M400.47,543.17c3.46-.41,7.23.21,10.97,1.63,3.93,1.49,7.84,3.86,11.31,6.88,3.54,3.09,6.63,6.87,8.83,11.17,2.75,5.38,5.51,10.73,8.28,16.04-.1.03-.2.06-.3.07-7.33,1.89-15.86-1.06-22.61-7.08"/>
    <path class="cls-5" d="M439.55,578.96c6.91,5.58,15.66,7.93,23.15,5.47.1-.03.2-.06.3-.1-2.81-5.1-5.61-10.24-8.4-15.41-2.23-4.12-5.37-7.67-8.99-10.49-3.53-2.76-7.5-4.82-11.51-6.01-3.87-1.14-7.78-1.46-11.36-.75"/>
    <path class="cls-2" d="M486.43,588.05c-.1.04-.2.09-.3.12-7.56,3.01-16.41,1.33-23.42-3.73.1-.03.2-.06.3-.1-2.81-5.1-5.61-10.24-8.4-15.41-2.23-4.12-5.37-7.67-8.99-10.49,3.65-.99,7.62-.97,11.55-.12,4.07.88,8.1,2.64,11.68,5.13,3.66,2.55,6.84,5.86,9.09,9.82,2.83,4.97,5.66,9.89,8.49,14.78Z"/>
    <path class="cls-5" d="M468.85,563.44c3.69-1.27,7.72-1.54,11.7-.99,4.12.58,8.18,2.04,11.79,4.26,3.69,2.28,6.89,5.35,9.16,9.14,2.84,4.76,5.69,9.47,8.54,14.15-.1.05-.2.1-.31.14-7.6,3.57-16.52,2.54-23.6-1.99"/>
    <path class="cls-2" d="M509.73,590.16c7.11,4.01,16.05,4.38,23.66.25.1-.05.2-.11.31-.17-2.85-4.47-5.7-8.98-8.55-13.53-2.27-3.62-5.49-6.46-9.19-8.47-3.62-1.96-7.71-3.12-11.85-3.39-4-.26-8.05.32-11.77,1.86"/>
    <path class="cls-5" d="M516.32,568.46s-.02-.03-.03-.04c3.82-1.93,8-2.85,12.11-2.9,4.15-.04,8.25.81,11.86,2.5,3.69,1.72,6.9,4.32,9.17,7.77,2.84,4.33,5.69,8.62,8.52,12.88-.1.07-.2.13-.31.19-7.7,4.79-16.81,5.02-23.98,1.36"/>
    <path class="cls-2" d="M557.66,588.86c7.09,2.95,15.97,1.99,23.48-3.27.1-.07.2-.14.3-.21-2.81-4.05-5.64-8.13-8.46-12.25-2.25-3.28-5.44-5.65-9.12-7.1-3.6-1.42-7.67-1.97-11.81-1.62-3.99.34-8.05,1.52-11.79,3.62"/>
    <path class="cls-5" d="M604.67,580.34c-.1.08-.2.16-.3.23-7.41,5.82-16.19,7.44-23.23,5.01.1-.07.2-.14.3-.21-2.81-4.05-5.64-8.13-8.46-12.25-2.25-3.28-5.44-5.65-9.12-7.1,3.72-2.37,7.75-3.85,11.71-4.48,4.11-.65,8.14-.4,11.71.75,3.65,1.18,6.8,3.3,9.03,6.42,2.79,3.91,5.58,7.79,8.36,11.62Z"/>
    <path class="cls-2" d="M587.28,562.29c3.68-2.65,7.67-4.43,11.6-5.35,4.06-.96,8.04-1.01,11.56-.12,3.6.91,6.7,2.8,8.89,5.75,2.75,3.7,5.49,7.37,8.22,10.99-.1.09-.2.18-.29.26-7.28,6.38-15.94,8.66-22.88,6.75"/>
    <path class="cls-5" d="M627.25,573.82c6.83,1.38,15.3-1.55,22.42-8.49.1-.09.19-.18.29-.28-2.67-3.42-5.35-6.87-8.04-10.37-2.15-2.78-5.19-4.44-8.72-5.07-3.45-.62-7.36-.27-11.35.99-3.85,1.22-7.78,3.3-11.41,6.22"/>
    <path class="cls-2" d="M633.05,549.59c3.52-3.13,7.32-5.45,11.03-6.94,3.91-1.56,7.74-2.21,11.11-1.85,3.44.37,6.4,1.79,8.5,4.41,2.62,3.29,5.23,6.54,7.83,9.75-.09.1-.19.21-.28.3-6.87,7.44-15.07,11.02-21.72,10.22"/>
    <path class="cls-5" d="M671.24,555.25c6.49.34,14.52-3.9,21.21-11.95.09-.1.18-.21.27-.32-2.51-3-5.04-6.04-7.58-9.12-2.03-2.45-4.9-3.64-8.25-3.73-3.27-.09-6.99.85-10.8,2.72-3.67,1.8-7.43,4.47-10.91,7.94"/>
    <path class="cls-2" d="M713.15,529.27c-.09.12-.17.24-.26.35-6.43,8.61-14.16,13.5-20.44,13.69.09-.1.18-.21.27-.32-2.51-3-5.04-6.04-7.58-9.12-2.03-2.45-4.9-3.64-8.25-3.73,3.38-3.74,7.02-6.71,10.58-8.81,3.69-2.17,7.28-3.42,10.44-3.59,3.23-.18,6,.77,7.95,3.05,2.45,2.87,4.88,5.7,7.29,8.49Z"/>
    <path class="cls-5" d="M697.91,517.72c3.26-4.02,6.77-7.28,10.2-9.68,3.55-2.48,7-4.03,10.03-4.46,3.1-.45,5.75.26,7.62,2.38,2.34,2.66,4.66,5.28,6.96,7.86-.08.13-.16.25-.25.37-6.13,9.17-13.54,14.72-19.57,15.43"/>
    <path class="cls-2" d="M732.47,514.18c5.76-1.23,12.79-7.43,18.59-17.16.08-.12.16-.26.23-.39-2.18-2.37-4.37-4.78-6.6-7.23-1.77-1.95-4.29-2.43-7.24-1.7-2.88.7-6.17,2.55-9.56,5.34-3.27,2.69-6.63,6.25-9.76,10.55"/>
  </g>
  <g>
    <g>
      <path class="cls-4" d="M165.47,342.93l18.05,51.19c111.18,10.16,232.48,16.65,362.62,16.92,126.06.27,243.81-5.32,352.05-14.46,5.45-17.89,10.89-35.78,16.34-53.67-107.52,15.24-231.93,26.19-370.12,26.42-141.81.24-269.23-10.85-378.94-26.4Z"/>
      <path class="cls-3" d="M183.52,402.62c32.75,2.99,66.38,5.66,100.85,7.95,2.4.16,4.81.32,7.22.48,5.75.37,11.53.73,17.33,1.08,2.32.14,4.65.28,6.98.42,73.19,4.29,150.04,6.83,230.25,7,88.6.19,173.08-2.53,253.06-7.33,1.79-.11,3.57-.22,5.36-.33,17.32-1.06,34.45-2.21,51.34-3.46,1.78-.13,3.55-.27,5.33-.4,12.43-.94,24.77-1.91,36.96-2.94,5.45-17.89,10.89-35.78,16.34-53.67-.99.14-1.98.28-2.97.42-4.46,14.64-8.91,29.27-13.37,43.91-108.24,9.14-226,14.73-352.05,14.46-130.14-.28-251.44-6.76-362.62-16.92l-14.58-41.36c-1.15-.16-2.32-.32-3.47-.48l18.05,51.19Z"/>
    </g>
    <g>
      <path class="cls-4" d="M204.39,394.55v31.78c105.12,5.51,215.53,8.65,330.81,8.63,114.46-.02,224.12-3.16,328.55-8.63v-32.68c-106.6,3.76-216.56,5.88-329.68,6.04-113.12.15-223.07-1.67-329.68-5.14Z"/>
      <path class="cls-3" d="M204.39,426.23v10c105.12,5.51,215.53,8.65,330.81,8.63,114.46-.02,224.12-3.16,328.55-8.63v-10c-104.43,5.47-214.09,8.61-328.55,8.63-115.28.02-225.69-3.12-330.81-8.63Z"/>
    </g>
    <rect class="cls-4" x="208.42" y="483.2" width="653.08" height="41.08"/>
    <rect class="cls-4" x="510.79" y="419.66" width="48.34" height="63.44"/>
    <path class="cls-5" d="M267.94,864.28c-2.22,17.76-4.45,35.51-6.67,53.27,12.28,4,29.27,8.13,49.78,8.98,24.47,1.02,44.65-3.01,58.33-6.89-.69-17.86-1.38-35.73-2.06-53.59-.36-.98-1.18-2.75-2.96-4.27-3.07-2.63-6.71-2.52-7.59-2.47-9.38,3.39-24.19,7.44-42.6,7.12-13.89-.24-25.4-2.88-33.65-5.47-1.23-.16-2.79-.23-4.56.01-3.81.52-6.57,2.23-8.02,3.3Z"/>
    <path class="cls-5" d="M801.85,866.12c2.22,17.76,4.45,35.51,6.67,53.27-12.28,4-29.27,8.13-49.78,8.98-24.47,1.02-44.65-3.01-58.33-6.89.69-17.86,1.38-35.73,2.06-53.59.36-.98,1.18-2.75,2.96-4.27,3.07-2.63,6.71-2.52,7.59-2.47,9.38,3.39,24.19,7.44,42.6,7.12,13.89-.24,25.4-2.88,33.65-5.47,1.23-.16,2.79-.23,4.56.01,3.81.52,6.57,2.23,8.02,3.3Z"/>
    <path class="cls-4" d="M769.73,434.8c-5.68-3.02-17.95-8.56-34.38-8.36-15.5.19-27.08,5.39-32.71,8.39,3.93,146.44,7.86,292.88,11.79,439.32,10.49,2.25,23.51,4.18,38.5,4.47,14.6.28,27.37-1.05,37.75-2.82-6.98-147-13.96-294-20.95-441Z"/>
    <path class="cls-4" d="M301.22,427.26c5.68-3.02,17.95-8.56,34.38-8.36,15.5.19,27.08,5.39,32.71,8.39-3.93,146.44-7.86,292.88-11.79,439.32-10.49,2.25-23.51,4.18-38.5,4.47-14.6.28-27.37-1.05-37.75-2.82,6.98-147,13.96-294,20.95-441Z"/>
  </g>
</svg>